<svg xmlns="http://www.w3.org/2000/svg" width="640" height="640" viewBox="0 0 640 640" role="img" aria-label="LeafWell plant">
  <defs>
    <linearGradient id="bg" x1="0" x2="1" y1="0" y2="1">
      <stop offset="0" stop-color="#eef8ef"/>
      <stop offset="1" stop-color="#d6ead8"/>
    </linearGradient>
    <linearGradient id="leaf" x1="0" x2="1" y1="0" y2="1">
      <stop offset="0" stop-color="#8fd36d"/>
      <stop offset="1" stop-color="#2f8f46"/>
    </linearGradient>
  </defs>
  <rect width="640" height="640" rx="96" fill="url(#bg)"/>
  <ellipse cx="320" cy="512" rx="148" ry="34" fill="#b9d4ba"/>
  <path d="M250 422h140l-22 96H272z" fill="#b78471"/>
  <path d="M286 420h68c34 0 58-27 58-60H228c0 33 24 60 58 60z" fill="#c89a85"/>
  <path d="M320 358c0-93 0-139 0-139" fill="none" stroke="#4f9a4f" stroke-width="18" stroke-linecap="round"/>
  <path d="M320 242c-72-70-151-71-197-16 55 63 132 75 197 16z" fill="url(#leaf)"/>
  <path d="M324 214c34-91 105-129 178-100-17 80-72 134-178 100z" fill="url(#leaf)"/>
  <path d="M321 302c-78-40-145-22-176 39 59 36 126 29 176-39z" fill="#5faf58"/>
  <path d="M329 304c69-54 139-50 183 3-45 52-113 67-183-3z" fill="#6ebe64"/>
</svg>
